<svg viewBox="0 0 626 514" fill="none" xmlns="http://www.w3.org/2000/svg">
<g clip-path="url(#clip0)">
<path d="M143.514 103.736L146.179 323.585L261.328 379.675L258.664 159.827L143.514 103.736Z" fill="#1959A2"/>
<path d="M108.523 86.174L22.4801 262.812L139.228 319.681L136.563 99.8326L108.523 86.174Z" fill="#1959A2"/>
<path d="M626 334.32L393.611 221.121L396.276 440.97L539.958 510.959L626 334.32Z" fill="#1959A2"/>
<path d="M269.073 159.827L271.738 379.675L386.887 435.765L384.223 215.917L269.073 159.827Z" fill="#1959A2"/>
<path d="M528.979 169.191L514.518 169.752L515.239 188.343L529.7 187.782L528.979 169.191Z" fill="#6AEDC7"/>
<path d="M463.75 234.302C463.75 234.302 443.725 224.734 444.045 232.997C444.366 241.26 464.231 246.696 464.231 246.696L463.75 234.302Z" fill="#FFB9B9"/>
<path d="M474.736 304.215C474.736 304.215 465.289 327.338 461.799 344.024C458.308 360.71 452.992 383.673 459.83 399.958C466.668 416.243 486.109 464.106 486.309 469.27C486.509 474.435 484.644 479.679 488.775 479.519C492.907 479.359 515.389 472.28 516.301 469.142C517.214 466.003 508.631 458.061 508.631 458.061L487.436 391.647L509.55 348.379L525.5 412.927L528.624 493.49C528.624 493.49 543.957 488.757 546.182 492.809C546.182 492.809 553.052 483.233 553.924 479.061C554.797 474.89 550.68 395.401 550.68 395.401C550.68 395.401 564.754 304.862 553.393 305.303C542.032 305.743 497.531 278.506 474.736 304.215Z" fill="#2F2E41"/>
<path d="M488.615 475.388C488.615 475.388 478.134 498.551 477.142 499.624C476.149 500.696 469.319 511.305 474.484 511.105C479.648 510.905 491.842 505.26 500.817 496.637C509.792 488.014 521.626 473.073 520.553 472.081C519.48 471.088 512.13 468.27 512.13 468.27L488.615 475.388Z" fill="#2F2E41"/>
<path d="M530.49 488.246C530.49 488.246 529.858 498.614 527.952 502.826C526.047 507.037 526.287 513.234 531.451 513.034C536.615 512.834 549.962 510.247 549.962 510.247C549.962 510.247 550.755 504.01 549.682 503.017C548.609 502.025 544.037 490.824 545.983 487.645C547.928 484.466 530.49 488.246 530.49 488.246Z" fill="#2F2E41"/>
<path d="M538.13 151.768C538.13 151.768 549.139 168.926 553.431 172.898C557.722 176.869 545.648 185.612 545.648 185.612L524.039 188.519C524.039 188.519 524.311 168.855 523.198 166.829C522.085 164.803 538.13 151.768 538.13 151.768Z" fill="#FFB9B9"/>
<path d="M519.347 174.219C519.347 174.219 523.799 182.322 527.93 182.162C532.061 182.002 553.431 172.898 554.343 169.759C555.256 166.62 561.422 192.241 561.422 192.241L509.132 284.262L496.378 275.447L502.558 221.418L507.634 192.258L519.347 174.219Z" fill="#6AEDC7"/>
<path d="M556.272 256.574C554.186 260.937 552.884 265.487 553.064 270.146C553.072 270.352 553.08 270.559 553.099 270.765C553.593 280.324 557.115 291.38 558.378 299.42C559.295 305.187 559.034 309.397 555.659 310.387C547.476 312.773 556.852 314.478 525.194 325.015C493.537 335.553 488.012 326.457 487.932 324.391C487.852 322.326 492.415 306.633 491.342 305.64C490.269 304.647 476.33 318.635 472.119 316.729C467.907 314.824 471.638 304.335 471.638 304.335C471.638 304.335 481.125 282.245 480.925 277.081C480.725 271.916 495.296 247.56 495.296 247.56L505.207 183.043C505.207 183.043 509.018 174.62 514.143 173.387C519.267 172.154 523.518 175.092 523.518 175.092L514.943 194.044L505.897 227.495L507.41 239.85C507.41 239.85 517.93 217.719 524.84 209.176C531.749 200.633 546.481 180.408 546.481 180.408C546.481 180.408 549.921 168.803 547.324 165.335C544.727 161.857 558.154 161.336 563.879 175.596C566.914 183.153 571.84 194.423 574.926 204.917C577.676 214.213 578.975 222.903 576.251 227.87C572.087 235.459 561.612 245.433 556.272 256.574Z" fill="#575A89"/>
<path opacity="0.1" d="M576.251 227.87C572.087 235.459 561.612 245.433 556.272 256.574C554.877 251.549 553.176 246.35 553.176 246.35C553.176 246.35 546.65 211.433 565.954 202.41C569.152 202.1 572.351 202.994 574.926 204.917C577.676 214.213 578.975 222.903 576.251 227.87Z" fill="black"/>
<path d="M499.62 225.67L483.254 230.442L460.532 231.323L458.194 251.068L495.537 253.757C495.537 253.757 504.864 227.535 499.62 225.67Z" fill="#575A89"/>
<path d="M526.305 292.057C526.305 292.057 504.412 295.689 509.409 302.277C514.406 308.866 533.8 301.939 533.8 301.939L526.305 292.057Z" fill="#FFB9B9"/>
<path opacity="0.1" d="M553.099 270.765C553.594 280.324 557.115 291.38 558.379 299.42C551.404 306.021 544.772 311.843 542.272 311.94C537.108 312.14 528.805 311.428 525.747 312.581C522.688 313.734 520.895 294.15 520.895 294.15C520.895 294.15 522.72 287.873 530.863 284.454C536.359 282.141 546.894 275.867 553.099 270.765Z" fill="black"/>
<path d="M565.713 196.213C565.713 196.213 583.191 193.466 582.247 222.466C581.303 251.466 584.089 269.977 577.06 275.422C570.03 280.866 547.196 305.543 542.032 305.743C536.867 305.943 528.565 305.231 525.506 306.384C522.448 307.537 520.654 287.953 520.654 287.953C520.654 287.953 522.479 281.676 530.622 278.257C538.764 274.838 557.948 262.715 557.788 258.584C557.627 254.453 552.935 240.153 552.935 240.153C552.935 240.153 546.409 205.236 565.713 196.213Z" fill="#575A89"/>
<path d="M522.717 177.175C535.276 177.175 545.457 166.994 545.457 154.435C545.457 141.876 535.276 131.695 522.717 131.695C510.158 131.695 499.977 141.876 499.977 154.435C499.977 166.994 510.158 177.175 522.717 177.175Z" fill="#FFB9B9"/>
<path d="M507.406 121.842C506.857 122.315 506.201 122.644 505.494 122.802C505.139 122.865 504.774 122.785 504.478 122.58C504.181 122.375 503.978 122.061 503.913 121.707C503.393 122.785 502.806 123.935 501.743 124.489C500.681 125.043 499.039 124.578 498.885 123.39C498.73 124.292 498.331 125.135 497.732 125.826C497.072 126.455 495.877 126.613 495.302 125.907C495.767 128.45 495.48 131.064 495.626 133.644C495.772 136.224 496.46 138.96 498.41 140.657C501.253 143.131 505.528 142.52 509.268 142.052C509.833 141.933 510.42 141.965 510.969 142.145C512.37 142.741 512.306 144.69 512.325 146.212C512.439 148.883 513.496 151.426 515.308 153.391C517.12 155.356 519.57 156.616 522.222 156.946C523.706 157.175 525.221 156.805 526.433 155.918C527.495 155.018 528.037 153.551 529.254 152.875C531.233 151.775 533.633 153.379 535.08 155.121C536.527 156.862 537.954 159.004 540.195 159.323C543.16 159.745 545.418 156.723 546.526 153.941C548.054 150.042 548.787 145.876 548.68 141.689C548.572 137.502 547.628 133.379 545.902 129.563C539.712 116.069 518.565 113.935 507.406 121.842Z" fill="#2F2E41"/>
<path d="M387.07 140.574C412.94 140.574 433.913 119.601 433.913 93.7307C433.913 67.8601 412.94 46.8878 387.07 46.8878C361.199 46.8878 340.226 67.8601 340.226 93.7307C340.226 119.601 361.199 140.574 387.07 140.574Z" fill="#6AEDC7"/>
<path d="M336.108 44.3092C346.9 55.3797 363.48 56.7205 363.48 56.7205C363.48 56.7205 362.56 40.1126 351.768 29.042C340.975 17.9715 324.396 16.6307 324.396 16.6307C324.396 16.6307 325.315 33.2387 336.108 44.3092Z" fill="#3F3D56"/>
<path d="M339.728 38.6192C354.655 42.6455 363.909 56.4675 363.909 56.4675C363.909 56.4675 348.96 63.7616 334.032 59.7353C319.105 55.7091 309.852 41.8871 309.852 41.8871C309.852 41.8871 324.8 34.5929 339.728 38.6192Z" fill="#6AEDC7"/>
<path d="M354.381 28.0639C354.48 43.5245 365.495 55.9878 365.495 55.9878C365.495 55.9878 376.35 43.3845 376.251 27.9239C376.152 12.4633 365.137 0 365.137 0C365.137 0 354.282 12.6033 354.381 28.0639Z" fill="#3F3D56"/>
<path d="M360.935 26.475C368.898 39.7276 365.98 56.1031 365.98 56.1031C365.98 56.1031 350.152 50.9918 342.189 37.7392C334.226 24.4866 337.144 8.11115 337.144 8.11115C337.144 8.11115 352.972 13.2224 360.935 26.475Z" fill="#6AEDC7"/>
<path d="M382.831 114.207C396.125 114.207 406.903 103.429 406.903 90.1347C406.903 76.8401 396.125 66.0626 382.831 66.0626C369.536 66.0626 358.758 76.8401 358.758 90.1347C358.758 103.429 369.536 114.207 382.831 114.207Z" fill="#F2F2F2"/>
<path d="M371.565 105.39C375.877 105.39 379.372 101.894 379.372 97.5827C379.372 93.271 375.877 89.7756 371.565 89.7756C367.253 89.7756 363.758 93.271 363.758 97.5827C363.758 101.894 367.253 105.39 371.565 105.39Z" fill="#3F3D56"/>
<path d="M135.324 509.359C161.195 509.359 182.167 488.386 182.167 462.516C182.167 436.646 161.195 415.673 135.324 415.673C109.454 415.673 88.4812 436.646 88.4812 462.516C88.4812 488.386 109.454 509.359 135.324 509.359Z" fill="#6AEDC7"/>
<path d="M114.872 394.536C118.909 409.461 132.738 418.704 132.738 418.704C132.738 418.704 140.021 403.749 135.984 388.825C131.946 373.9 118.117 364.657 118.117 364.657C118.117 364.657 110.834 379.612 114.872 394.536Z" fill="#3F3D56"/>
<path d="M120.804 391.329C131.883 402.113 133.236 418.692 133.236 418.692C133.236 418.692 116.627 417.785 105.549 407C94.4702 396.216 93.1171 379.637 93.1171 379.637C93.1171 379.637 109.726 380.544 120.804 391.329Z" fill="#6AEDC7"/>
<path d="M138.743 389.243C131.302 402.796 134.856 419.045 134.856 419.045C134.856 419.045 150.473 413.321 157.914 399.769C165.355 386.216 161.801 369.966 161.801 369.966C161.801 369.966 146.183 375.69 138.743 389.243Z" fill="#3F3D56"/>
<path d="M145.241 391.046C145.745 406.499 135.223 419.382 135.223 419.382C135.223 419.382 123.885 407.211 123.382 391.758C122.879 376.305 133.401 363.423 133.401 363.423C133.401 363.423 144.738 375.594 145.241 391.046Z" fill="#6AEDC7"/>
<path d="M133.372 481.383C146.667 481.383 157.444 470.606 157.444 457.311C157.444 444.016 146.667 433.239 133.372 433.239C120.078 433.239 109.3 444.016 109.3 457.311C109.3 470.606 120.078 481.383 133.372 481.383Z" fill="#F2F2F2"/>
<path d="M141.179 453.408C145.491 453.408 148.987 449.913 148.987 445.601C148.987 441.289 145.491 437.794 141.179 437.794C136.868 437.794 133.372 441.289 133.372 445.601C133.372 449.913 136.868 453.408 141.179 453.408Z" fill="#3F3D56"/>
<path d="M250.48 508.708H6.50597V510.01H250.48V508.708Z" fill="#2F2E41"/>
<path d="M610.261 511.311H366.286V512.612H610.261V511.311Z" fill="#2F2E41"/>
<path d="M62.3849 509.658L61.2286 509.061C76.2457 480.029 68.2155 442.326 58.8352 415.809C52.4657 397.987 44.3415 380.84 34.5824 364.624L35.6821 363.929C45.492 380.228 53.6585 397.461 60.0615 415.375C69.5282 442.134 77.6149 480.213 62.3849 509.658Z" fill="#2F2E41"/>
<path d="M73.5193 364.16L65.0783 410.356L66.3578 410.589L74.7989 364.394L73.5193 364.16Z" fill="#2F2E41"/>
<path d="M17.3921 403.519L16.4392 404.406L60.029 451.249L60.9819 450.362L17.3921 403.519Z" fill="#2F2E41"/>
<path d="M95.7559 454.975L73.6459 485.561L74.7005 486.323L96.8105 455.737L95.7559 454.975Z" fill="#2F2E41"/>
<path d="M77.4211 351.915C81.0142 351.915 83.927 349.002 83.927 345.409C83.927 341.816 81.0142 338.903 77.4211 338.903C73.8279 338.903 70.9151 341.816 70.9151 345.409C70.9151 349.002 73.8279 351.915 77.4211 351.915Z" fill="#6AEDC7"/>
<path d="M6.50597 402.011C10.0991 402.011 13.0119 399.098 13.0119 395.505C13.0119 391.912 10.0991 388.999 6.50597 388.999C2.91282 388.999 0 391.912 0 395.505C0 399.098 2.91282 402.011 6.50597 402.011Z" fill="#3F3D56"/>
<path d="M35.1322 408.517C38.7254 408.517 41.6382 405.604 41.6382 402.011C41.6382 398.418 38.7254 395.505 35.1322 395.505C31.5391 395.505 28.6263 398.418 28.6263 402.011C28.6263 405.604 31.5391 408.517 35.1322 408.517Z" fill="#3F3D56"/>
<path d="M22.1203 433.89C25.7135 433.89 28.6263 430.977 28.6263 427.384C28.6263 423.791 25.7135 420.878 22.1203 420.878C18.5272 420.878 15.6143 423.791 15.6143 427.384C15.6143 430.977 18.5272 433.89 22.1203 433.89Z" fill="#6AEDC7"/>
<path d="M103.445 450.155C107.038 450.155 109.951 447.242 109.951 443.649C109.951 440.056 107.038 437.143 103.445 437.143C99.8518 437.143 96.939 440.056 96.939 443.649C96.939 447.242 99.8518 450.155 103.445 450.155Z" fill="#3F3D56"/>
<path d="M81.9752 457.311C85.5683 457.311 88.4812 454.398 88.4812 450.805C88.4812 447.212 85.5683 444.299 81.9752 444.299C78.382 444.299 75.4692 447.212 75.4692 450.805C75.4692 454.398 78.382 457.311 81.9752 457.311Z" fill="#3F3D56"/>
<path d="M96.939 478.13C100.532 478.13 103.445 475.218 103.445 471.624C103.445 468.031 100.532 465.118 96.939 465.118C93.3458 465.118 90.433 468.031 90.433 471.624C90.433 475.218 93.3458 478.13 96.939 478.13Z" fill="#3F3D56"/>
<path d="M28.6263 359.722C32.2194 359.722 35.1323 356.809 35.1323 353.216C35.1323 349.623 32.2194 346.71 28.6263 346.71C25.0331 346.71 22.1203 349.623 22.1203 353.216C22.1203 356.809 25.0331 359.722 28.6263 359.722Z" fill="#3F3D56"/>
<path d="M446.698 116.613H133.11V304.635H446.698V116.613Z" fill="#3F3D56"/>
<path d="M145.471 127.022C147.268 127.022 148.724 125.566 148.724 123.769C148.724 121.973 147.268 120.516 145.471 120.516C143.675 120.516 142.218 121.973 142.218 123.769C142.218 125.566 143.675 127.022 145.471 127.022Z" fill="#6AEDC7"/>
<path d="M157.182 127.022C158.979 127.022 160.435 125.566 160.435 123.769C160.435 121.973 158.979 120.516 157.182 120.516C155.385 120.516 153.929 121.973 153.929 123.769C153.929 125.566 155.385 127.022 157.182 127.022Z" fill="#6AEDC7"/>
<path d="M168.893 127.022C170.689 127.022 172.146 125.566 172.146 123.769C172.146 121.973 170.689 120.516 168.893 120.516C167.096 120.516 165.64 121.973 165.64 123.769C165.64 125.566 167.096 127.022 168.893 127.022Z" fill="#6AEDC7"/>
<path d="M446.698 131.044H133.372V132.345H446.698V131.044Z" fill="#2F2E41"/>
<path d="M315.928 169.311V227.865H230.81L215.085 246.732L216.881 227.865H209.23V169.311H315.928Z" fill="#6AEDC7"/>
<path opacity="0.1" d="M315.928 189.479H277.542V227.865H315.928V189.479Z" fill="black"/>
<path d="M286.001 197.937H392.698V256.491H385.046L386.843 275.358L371.12 256.491H286.001V197.937Z" fill="#6AEDC7"/>
<path opacity="0.1" d="M215.736 256.173C228.671 256.173 239.157 255.15 239.157 253.888C239.157 252.626 228.671 251.603 215.736 251.603C202.8 251.603 192.314 252.626 192.314 253.888C192.314 255.15 202.8 256.173 215.736 256.173Z" fill="black"/>
<path opacity="0.1" d="M386.843 287.069C401.575 287.069 413.517 285.904 413.517 284.466C413.517 283.029 401.575 281.864 386.843 281.864C372.111 281.864 360.168 283.029 360.168 284.466C360.168 285.904 372.111 287.069 386.843 287.069Z" fill="black"/>
</g>
<defs>
<clipPath id="clip0">
<rect width="626" height="513.039" fill="white"/>
</clipPath>
</defs>
</svg>
