<svg width="36" height="38" viewBox="0 0 36 38" fill="none" xmlns="http://www.w3.org/2000/svg">
<path fill-rule="evenodd" clip-rule="evenodd" d="M35.2515 0.0479736L20.2111 37.031H15.292L10.3824 24.9587L15.0753 22.9467L16.4767 26.4718C16.7171 27.0899 16.9489 27.7681 17.1721 28.5064C17.4124 29.2447 17.627 30.0173 17.8159 30.8243C17.9876 30.0173 18.1765 29.2447 18.3825 28.5064C18.5885 27.7681 18.8117 27.0899 19.0521 26.4718L29.019 1.33569C29.1392 0.992297 29.3538 0.691831 29.6629 0.434287C29.9891 0.176745 30.384 0.0479736 30.8476 0.0479736H35.2515Z" fill="white"/>
<path fill-rule="evenodd" clip-rule="evenodd" d="M35.2515 0.0479736L20.2111 37.031H15.292L10.3824 24.9587L15.0753 22.9467L16.4767 26.4718C16.7171 27.0899 16.9489 27.7681 17.1721 28.5064C17.4124 29.2447 17.627 30.0173 17.8159 30.8243C17.9876 30.0173 18.1765 29.2447 18.3825 28.5064C18.5885 27.7681 18.8117 27.0899 19.0521 26.4718L29.019 1.33569C29.1392 0.992297 29.3538 0.691831 29.6629 0.434287C29.9891 0.176745 30.384 0.0479736 30.8476 0.0479736H35.2515Z" fill="url(#paint0_linear)"/>
<path fill-rule="evenodd" clip-rule="evenodd" d="M0.251526 0.0479736H4.62974C5.11049 0.0479736 5.4968 0.168161 5.78869 0.408534C6.09774 0.648906 6.32952 0.957957 6.48405 1.33569L12.7558 17.1121L7.99999 19.1007L0.251526 0.0479736Z" fill="white"/>
<path fill-rule="evenodd" clip-rule="evenodd" d="M0.251526 0.0479736H4.62974C5.11049 0.0479736 5.4968 0.168161 5.78869 0.408534C6.09774 0.648906 6.32952 0.957957 6.48405 1.33569L12.7558 17.1121L7.99999 19.1007L0.251526 0.0479736Z" fill="url(#paint1_linear)"/>
<defs>
<linearGradient id="paint0_linear" x1="17.7515" y1="0.0479736" x2="17.7515" y2="37.031" gradientUnits="userSpaceOnUse">
<stop stop-color="#1959A2"/>
<stop offset="1" stop-color="#6AEDC7"/>
</linearGradient>
<linearGradient id="paint1_linear" x1="17.7515" y1="0.0479736" x2="17.7515" y2="37.031" gradientUnits="userSpaceOnUse">
<stop stop-color="#1959A2"/>
<stop offset="1" stop-color="#6AEDC7"/>
</linearGradient>
</defs>
</svg>
